<svg width="326" height="87" viewBox="0 0 326 87" fill="none" xmlns="http://www.w3.org/2000/svg">
<g clip-path="url(#clip0)" filter="url(#filter0_d)">
<path d="M73.0578 18.4852H8.00515C8.00515 18.4852 8.06076 57.2328 8.00515 59.3768C8.00473 59.3952 8.00473 59.4137 8.00529 59.432C8.06117 61.495 8.90638 63.4254 10.385 64.8679C11.8672 66.3134 13.8235 67.1097 15.8943 67.1097H50.2547C50.5311 67.1097 50.7962 66.9999 50.9916 66.8046L73.7948 44.0014C73.9902 43.8059 74.0999 43.541 74.0999 43.2645V19.5272C74.0999 18.9516 73.6333 18.4852 73.0578 18.4852Z" fill="#E0E0E2"/>
<path d="M26.8538 45.7336H31.1122L34.5267 35.0185L51.0601 18.4852H47.1697L30.6362 35.0185L26.8538 45.7336Z" fill="#C6C5CA"/>
<path d="M73.0578 18.4852H69.5842V48.2119L73.7947 44.0014C73.9901 43.8059 74.0997 43.541 74.0997 43.2645V19.5272C74.0999 18.9516 73.6332 18.4852 73.0578 18.4852Z" fill="#C6C5CA"/>
<path d="M55.4821 46.5872H26.6225C26.047 46.5872 25.5804 46.1207 25.5804 45.5451C25.5804 44.9695 26.047 44.503 26.6225 44.503H55.4821C56.0577 44.503 56.5242 44.9695 56.5242 45.5451C56.5242 46.1207 56.0576 46.5872 55.4821 46.5872Z" fill="#3C5156"/>
<path d="M15.9193 51.1163C16.3687 51.1163 16.809 51.1552 17.2383 51.2265V8.17566C17.2383 7.60004 16.7717 7.13354 16.1962 7.13354C11.6769 7.13354 8 10.8103 8 15.3297V58.012C8.5368 54.1168 11.8767 51.1163 15.9193 51.1163Z" fill="#919191"/>
<path d="M64.5715 17.4909L58.3131 11.2323C58.1176 11.0369 57.8525 10.9272 57.5762 10.9272C57.2998 10.9272 57.0348 11.0371 56.8393 11.2323L33.7898 34.2817C33.7759 34.2955 33.7636 34.3104 33.7505 34.3251L41.5952 41.9405L64.5713 18.9647C64.9785 18.5575 64.9785 17.8979 64.5715 17.4909Z" fill="#FFD039"/>
<path d="M38.7323 39.1613L41.5952 41.9406L64.5713 18.9647C64.9783 18.5576 64.9783 17.8979 64.5713 17.4909L62.4858 15.4055L38.7323 39.1613Z" fill="#FFA304"/>
<path d="M33.7533 34.3277C33.6611 34.4291 33.5876 34.5483 33.5404 34.6817L30.1294 44.3448C29.9958 44.7232 30.0914 45.1447 30.3751 45.4285C30.574 45.6274 30.8404 45.7336 31.112 45.7336C31.2284 45.7336 31.3454 45.7142 31.4588 45.6741L41.1218 42.2631C41.3077 42.1975 41.4664 42.0804 41.586 41.9315L33.7533 34.3277Z" fill="#FFC89F"/>
<path d="M31.1122 45.7336C31.2285 45.7336 31.3456 45.7142 31.459 45.6741L41.1219 42.263C41.3079 42.1974 41.4665 42.0804 41.5862 41.9315L38.7291 39.1579L30.9817 41.9306L30.1295 44.3445C29.996 44.7229 30.0915 45.1444 30.3753 45.4282C30.5741 45.6272 30.8404 45.7336 31.1122 45.7336Z" fill="#F7B081"/>
<path d="M31.1122 45.7336C31.2285 45.7336 31.3456 45.7142 31.459 45.6741L37.5528 43.523L32.2708 38.2789L30.1297 44.3445C29.9961 44.723 30.0917 45.1444 30.3754 45.4282C30.5741 45.6272 30.8404 45.7336 31.1122 45.7336Z" fill="#3C5156"/>
<path d="M34.6328 40.6241L30.9817 41.9308L30.1295 44.3446C29.996 44.7231 30.0915 45.1445 30.3753 45.4284C30.5741 45.6272 30.8405 45.7334 31.1122 45.7334C31.2285 45.7334 31.3456 45.714 31.459 45.674L37.5528 43.5229L34.6328 40.6241Z" fill="#304144"/>
<path d="M67.9574 14.1047L61.6989 7.84635C61.2917 7.43948 60.6321 7.43948 60.2251 7.84635L56.1051 11.9663L63.8343 19.7018L67.9574 15.5787C68.1528 15.3832 68.2625 15.1183 68.2625 14.8418C68.2625 14.5654 68.1527 14.3004 67.9574 14.1047Z" fill="#FF6137"/>
<path d="M61.0129 16.8782L61.992 17.8581L63.835 19.701L67.9574 15.5786C68.1528 15.3831 68.2625 15.1182 68.2625 14.8417C68.2625 14.5653 68.1527 14.3003 67.9574 14.1048L65.8719 12.0193L61.0129 16.8782Z" fill="#E04F32"/>
<path d="M70.7593 8.28286L67.5206 5.04432C66.9206 4.44429 66.1224 4.11383 65.2737 4.11383C64.425 4.11383 63.627 4.44429 63.0268 5.04432L60.9634 7.10776L60.2248 7.84632L59.4739 8.59723L67.2205 16.3153L68.3268 15.2088L70.7591 12.7765C71.3592 12.1765 71.6896 11.3783 71.6896 10.5296C71.6896 9.68095 71.3593 8.88303 70.7593 8.28286Z" fill="#546F7A"/>
<path d="M59.4868 8.58466L59.474 8.59741L61.7853 10.8999L59.4868 8.58466Z" fill="#475D63"/>
<path d="M70.7593 8.2829L68.2036 5.72717C68.6215 6.28269 68.8509 6.95567 68.8509 7.66567C68.8509 8.52377 68.5204 9.33056 67.9204 9.93753L65.4881 12.3969L64.3962 13.5013L67.2209 16.3156L68.3273 15.2091L70.7596 12.7768C71.3596 12.1768 71.69 11.3786 71.69 10.5299C71.69 9.68126 71.3593 8.88307 70.7593 8.2829Z" fill="#475D63"/>
<path d="M78.3567 37.4016C77.9673 37.2402 77.5191 37.3294 77.221 37.6274L41.7412 73.1071C41.4432 73.4053 41.3541 73.8535 41.5153 74.2428C41.6766 74.6322 42.0567 74.8861 42.4781 74.8861H77.958C78.5335 74.8861 79.0001 74.4196 79.0001 73.844V38.3644C79 37.943 78.746 37.5627 78.3567 37.4016ZM59.0357 66.4566L70.4243 55.068V66.4566H59.0357Z" fill="#FFCA10"/>
<path d="M78.3567 37.4016C77.9673 37.2402 77.5191 37.3294 77.221 37.6274L74.4841 40.3642V74.8863H77.9577C78.5332 74.8863 78.9998 74.4198 78.9998 73.8442V38.3644C79 37.943 78.7459 37.5627 78.3567 37.4016Z" fill="#FFA304"/>
<path d="M79 50.0742H74.9932C74.4176 50.0742 73.9511 50.5407 73.9511 51.1163C73.9511 51.6919 74.4176 52.1584 74.9932 52.1584H79V50.0742Z" fill="#C96E14"/>
<path d="M79 55.2988H74.9932C74.4176 55.2988 73.9511 55.7653 73.9511 56.3409C73.9511 56.9165 74.4176 57.383 74.9932 57.383H79V55.2988Z" fill="#C96E14"/>
<path d="M79 60.5229H74.9932C74.4176 60.5229 73.9511 60.9894 73.9511 61.5651C73.9511 62.1407 74.4176 62.6072 74.9932 62.6072H79V60.5229Z" fill="#C96E14"/>
<path d="M79 65.7476H74.9932C74.4176 65.7476 73.9511 66.2142 73.9511 66.7897C73.9511 67.3653 74.4176 67.8318 74.9932 67.8318H79V65.7476Z" fill="#C96E14"/>
</g>
<path opacity="0.85" d="M136.69 17.6C138.083 17.6 139.293 17.8347 140.32 18.304C141.347 18.7587 142.139 19.4187 142.696 20.284C143.253 21.1347 143.532 22.1393 143.532 23.298C143.532 24.4567 143.253 25.4613 142.696 26.312C142.139 27.1627 141.347 27.8227 140.32 28.292C139.293 28.7467 138.083 28.974 136.69 28.974H134.006V33H129.65V17.6H136.69ZM136.426 25.542C137.321 25.542 137.995 25.3513 138.45 24.97C138.905 24.574 139.132 24.0167 139.132 23.298C139.132 22.5793 138.905 22.022 138.45 21.626C137.995 21.23 137.321 21.032 136.426 21.032H134.006V25.542H136.426ZM157.32 27.06C157.32 27.0893 157.298 27.434 157.254 28.094H148.586C148.762 28.71 149.099 29.1867 149.598 29.524C150.111 29.8467 150.749 30.008 151.512 30.008C152.084 30.008 152.575 29.9273 152.986 29.766C153.411 29.6047 153.837 29.3407 154.262 28.974L156.462 31.262C155.303 32.5527 153.609 33.198 151.38 33.198C149.987 33.198 148.762 32.934 147.706 32.406C146.65 31.878 145.829 31.1447 145.242 30.206C144.67 29.2673 144.384 28.204 144.384 27.016C144.384 25.8427 144.663 24.794 145.22 23.87C145.792 22.9313 146.577 22.198 147.574 21.67C148.571 21.142 149.693 20.878 150.94 20.878C152.128 20.878 153.206 21.1273 154.174 21.626C155.142 22.11 155.905 22.8213 156.462 23.76C157.034 24.684 157.32 25.784 157.32 27.06ZM150.962 23.848C150.317 23.848 149.774 24.0313 149.334 24.398C148.909 24.7647 148.637 25.2633 148.52 25.894H153.404C153.287 25.2633 153.008 24.7647 152.568 24.398C152.143 24.0313 151.607 23.848 150.962 23.848ZM171.101 33V26.73L168.043 31.944H166.261L163.291 26.642V33H159.529V21.076H163.929L167.251 27.302L170.903 21.076H174.841L174.863 33H171.101ZM183.557 33.198C182.281 33.198 181.13 32.934 180.103 32.406C179.077 31.878 178.27 31.1447 177.683 30.206C177.111 29.2673 176.825 28.204 176.825 27.016C176.825 25.8427 177.111 24.7867 177.683 23.848C178.27 22.9093 179.069 22.1833 180.081 21.67C181.108 21.142 182.267 20.878 183.557 20.878C184.848 20.878 186.007 21.142 187.033 21.67C188.06 22.1833 188.859 22.9093 189.431 23.848C190.003 24.772 190.289 25.828 190.289 27.016C190.289 28.204 190.003 29.2673 189.431 30.206C188.859 31.1447 188.06 31.878 187.033 32.406C186.007 32.934 184.848 33.198 183.557 33.198ZM183.557 29.876C184.291 29.876 184.892 29.6267 185.361 29.128C185.831 28.6147 186.065 27.9107 186.065 27.016C186.065 26.136 185.831 25.4467 185.361 24.948C184.892 24.4493 184.291 24.2 183.557 24.2C182.824 24.2 182.223 24.4493 181.753 24.948C181.284 25.4467 181.049 26.136 181.049 27.016C181.049 27.9107 181.284 28.6147 181.753 29.128C182.223 29.6267 182.824 29.876 183.557 29.876ZM192.25 21.076H196.408V25.498H200.698V21.076H204.878V33H200.698V28.82H196.408V33H192.25V21.076ZM218.345 24.398H214.517V33H210.359V24.398H206.509V21.076H218.345V24.398ZM231.955 28.754H230.547V33H226.367V21.076H230.547V25.476H232.043L234.969 21.076H239.391L235.387 26.796L239.655 33H234.727L231.955 28.754ZM250.655 26.752C252.019 27.2067 252.701 28.1453 252.701 29.568C252.701 30.6387 252.283 31.482 251.447 32.098C250.611 32.6993 249.379 33 247.751 33H241.041V21.076H247.443C248.997 21.076 250.2 21.3473 251.051 21.89C251.916 22.4327 252.349 23.1953 252.349 24.178C252.349 24.75 252.202 25.256 251.909 25.696C251.615 26.136 251.197 26.488 250.655 26.752ZM244.781 25.872H247.069C248.037 25.872 248.521 25.5127 248.521 24.794C248.521 24.1047 248.037 23.76 247.069 23.76H244.781V25.872ZM247.377 30.294C248.389 30.294 248.895 29.9273 248.895 29.194C248.895 28.4607 248.403 28.094 247.421 28.094H244.781V30.294H247.377ZM259.674 20.878C261.654 20.878 263.165 21.3327 264.206 22.242C265.248 23.1367 265.768 24.5153 265.768 26.378V33H261.874V31.46C261.273 32.6187 260.1 33.198 258.354 33.198C257.43 33.198 256.631 33.0367 255.956 32.714C255.282 32.3913 254.768 31.9587 254.416 31.416C254.079 30.8587 253.91 30.228 253.91 29.524C253.91 28.3947 254.343 27.522 255.208 26.906C256.074 26.2753 257.408 25.96 259.212 25.96H261.588C261.515 24.6987 260.672 24.068 259.058 24.068C258.486 24.068 257.907 24.1633 257.32 24.354C256.734 24.53 256.235 24.7793 255.824 25.102L254.416 22.264C255.076 21.824 255.876 21.4867 256.814 21.252C257.768 21.0027 258.721 20.878 259.674 20.878ZM259.52 30.558C260.004 30.558 260.43 30.4407 260.796 30.206C261.163 29.9713 261.427 29.6267 261.588 29.172V28.138H259.784C258.567 28.138 257.958 28.5413 257.958 29.348C257.958 29.7147 258.098 30.008 258.376 30.228C258.655 30.448 259.036 30.558 259.52 30.558ZM275.785 20.878C276.87 20.878 277.853 21.1347 278.733 21.648C279.628 22.1467 280.332 22.8653 280.845 23.804C281.373 24.728 281.637 25.806 281.637 27.038C281.637 28.27 281.373 29.3553 280.845 30.294C280.332 31.218 279.628 31.9367 278.733 32.45C277.853 32.9487 276.87 33.198 275.785 33.198C274.392 33.198 273.284 32.78 272.463 31.944V37.268H268.283V21.076H272.265V22.264C273.042 21.34 274.216 20.878 275.785 20.878ZM274.905 29.876C275.638 29.876 276.24 29.6267 276.709 29.128C277.178 28.6147 277.413 27.918 277.413 27.038C277.413 26.158 277.178 25.4687 276.709 24.97C276.24 24.4567 275.638 24.2 274.905 24.2C274.172 24.2 273.57 24.4567 273.101 24.97C272.632 25.4687 272.397 26.158 272.397 27.038C272.397 27.918 272.632 28.6147 273.101 29.128C273.57 29.6267 274.172 29.876 274.905 29.876ZM293.863 24.398H290.035V33H285.877V24.398H282.027V21.076H293.863V24.398ZM295.482 21.076H299.64V27.324L304.634 21.076H308.484V33H304.304V26.73L299.354 33H295.482V21.076ZM318.797 20.878C319.882 20.878 320.865 21.1347 321.745 21.648C322.639 22.1467 323.343 22.8653 323.857 23.804C324.385 24.728 324.649 25.806 324.649 27.038C324.649 28.27 324.385 29.3553 323.857 30.294C323.343 31.218 322.639 31.9367 321.745 32.45C320.865 32.9487 319.882 33.198 318.797 33.198C317.403 33.198 316.296 32.78 315.475 31.944V37.268H311.295V21.076H315.277V22.264C316.054 21.34 317.227 20.878 318.797 20.878ZM317.917 29.876C318.65 29.876 319.251 29.6267 319.721 29.128C320.19 28.6147 320.425 27.918 320.425 27.038C320.425 26.158 320.19 25.4687 319.721 24.97C319.251 24.4567 318.65 24.2 317.917 24.2C317.183 24.2 316.582 24.4567 316.113 24.97C315.643 25.4687 315.409 26.158 315.409 27.038C315.409 27.918 315.643 28.6147 316.113 29.128C316.582 29.6267 317.183 29.876 317.917 29.876ZM143.532 60L143.51 51.838L139.55 58.482H137.614L133.654 52.014V60H129.65V44.6H133.236L138.648 53.488L143.928 44.6H147.514L147.558 60H143.532ZM162.67 54.06C162.67 54.0893 162.648 54.434 162.604 55.094H153.936C154.112 55.71 154.449 56.1867 154.948 56.524C155.461 56.8467 156.099 57.008 156.862 57.008C157.434 57.008 157.925 56.9273 158.336 56.766C158.761 56.6047 159.186 56.3407 159.612 55.974L161.812 58.262C160.653 59.5527 158.959 60.198 156.73 60.198C155.336 60.198 154.112 59.934 153.056 59.406C152 58.878 151.178 58.1447 150.592 57.206C150.02 56.2673 149.734 55.204 149.734 54.016C149.734 52.8427 150.012 51.794 150.57 50.87C151.142 49.9313 151.926 49.198 152.924 48.67C153.921 48.142 155.043 47.878 156.29 47.878C157.478 47.878 158.556 48.1273 159.524 48.626C160.492 49.11 161.254 49.8213 161.812 50.76C162.384 51.684 162.67 52.784 162.67 54.06ZM156.312 50.848C155.666 50.848 155.124 51.0313 154.684 51.398C154.258 51.7647 153.987 52.2633 153.87 52.894H158.754C158.636 52.2633 158.358 51.7647 157.918 51.398C157.492 51.0313 156.957 50.848 156.312 50.848ZM174.867 51.398H169.037V60H164.879V48.076H174.867V51.398ZM176.502 48.076H180.66V54.324L185.654 48.076H189.504V60H185.324V53.73L180.374 60H176.502V48.076ZM198.188 60.198C196.912 60.198 195.761 59.934 194.734 59.406C193.708 58.878 192.901 58.1447 192.314 57.206C191.742 56.2673 191.456 55.204 191.456 54.016C191.456 52.8427 191.742 51.7867 192.314 50.848C192.901 49.9093 193.7 49.1833 194.712 48.67C195.739 48.142 196.898 47.878 198.188 47.878C199.479 47.878 200.638 48.142 201.664 48.67C202.691 49.1833 203.49 49.9093 204.062 50.848C204.634 51.772 204.92 52.828 204.92 54.016C204.92 55.204 204.634 56.2673 204.062 57.206C203.49 58.1447 202.691 58.878 201.664 59.406C200.638 59.934 199.479 60.198 198.188 60.198ZM198.188 56.876C198.922 56.876 199.523 56.6267 199.992 56.128C200.462 55.6147 200.696 54.9107 200.696 54.016C200.696 53.136 200.462 52.4467 199.992 51.948C199.523 51.4493 198.922 51.2 198.188 51.2C197.455 51.2 196.854 51.4493 196.384 51.948C195.915 52.4467 195.68 53.136 195.68 54.016C195.68 54.9107 195.915 55.6147 196.384 56.128C196.854 56.6267 197.455 56.876 198.188 56.876ZM206.881 48.076H211.039V52.498H215.329V48.076H219.509V60H215.329V55.82H211.039V60H206.881V48.076Z" fill="#151515"/>
<defs>
<filter id="filter0_d" x="0" y="0" width="87" height="87" filterUnits="userSpaceOnUse" color-interpolation-filters="sRGB">
<feFlood flood-opacity="0" result="BackgroundImageFix"/>
<feColorMatrix in="SourceAlpha" type="matrix" values="0 0 0 0 0 0 0 0 0 0 0 0 0 0 0 0 0 0 127 0"/>
<feOffset dy="4"/>
<feGaussianBlur stdDeviation="4"/>
<feColorMatrix type="matrix" values="0 0 0 0 0 0 0 0 0 0 0 0 0 0 0 0 0 0 0.25 0"/>
<feBlend mode="normal" in2="BackgroundImageFix" result="effect1_dropShadow"/>
<feBlend mode="normal" in="SourceGraphic" in2="effect1_dropShadow" result="shape"/>
</filter>
<clipPath id="clip0">
<rect width="71" height="71" fill="white" transform="translate(8 4)"/>
</clipPath>
</defs>
</svg>
